<?xml version="1.0" encoding="UTF-8"?>
<svg width="17px" height="20px" viewBox="0 0 17 20" version="1.1" xmlns="http://www.w3.org/2000/svg" xmlns:xlink="http://www.w3.org/1999/xlink">
    <title>5F96B777-16EA-4892-BD06-DDD17403F2CC</title>
    <g id="Movil" stroke="none" stroke-width="1" fill="none" fill-rule="evenodd">
        <g id="Inicio-App" transform="translate(-298.000000, -72.000000)" fill="#343434">
            <g id="Bell-Notification" transform="translate(297.000000, 65.000000)">
                <path d="M9.45286345,25.6046512 L9.45378245,25.6046512 C10.0906956,25.6046512 10.7046326,25.3097667 11.1816281,24.7720923 C11.4371286,24.4865109 11.8727655,24.4632548 12.1549189,24.7209292 C12.4379914,24.9786036 12.4609683,25.4204645 12.2063869,25.7060459 C11.4637811,26.5404645 10.4868132,27 9.45378245,27 L9.45194379,27 C8.42167017,26.9990698 7.44654125,26.5395343 6.70669269,25.7051157 C6.45211124,25.4195343 6.47508748,24.9776734 6.75815998,24.7209292 C7.04123249,24.4623245 7.47686995,24.4855819 7.7314514,24.7730237 C8.20752787,25.3097679 8.81870754,25.6046512 9.45286345,25.6046512 Z M16.3282179,13.2279071 C16.3282179,14.7748837 16.7169829,15.4306971 17.1296438,16.1265111 C17.5377094,16.8130227 18,17.5925574 18,19.0660457 C17.6792458,22.8306966 13.796188,23.1376737 9.49863268,23.1376737 C5.20107738,23.1376737 1.3171024,22.830698 1,19.1255816 C0.997267239,17.5925584 1.45955768,16.8130227 1.86762326,16.1265111 L2.01168186,15.8810746 C2.36637739,15.2640538 2.66904925,14.5928866 2.66904925,13.2279071 C2.66904925,10.2204651 5.41338185,7 9.49863268,7 C13.5838835,7 16.3282179,10.2204651 16.3282179,13.2279071 Z M4.04764913,13.2279071 C4.04764913,15.1618605 3.51734767,16.0558139 3.04862373,16.8446511 C2.6727255,17.4781395 2.37586703,17.9786039 2.37586703,19.0660457 C2.52935114,20.8204643 3.67358881,21.742325 9.49863268,21.742325 C15.2915089,21.742325 16.4715906,20.7795344 16.6241556,19.005581 C16.6213985,17.9786043 16.3245415,17.4781395 15.9486433,16.8446511 C15.4799193,16.0558139 14.9496166,15.1618605 14.9496166,13.2279071 C14.9496166,10.9423258 12.7107703,8.39534878 9.49863268,8.39534878 C6.28649503,8.39534878 4.04764913,10.9423258 4.04764913,13.2279071 Z" id="Bell"></path>
            </g>
        </g>
    </g>
</svg>