<?xml version="1.0" encoding="UTF-8"?>
<svg width="18px" height="15px" viewBox="0 0 18 15" version="1.1" xmlns="http://www.w3.org/2000/svg" xmlns:xlink="http://www.w3.org/1999/xlink">
    <title>52821EE6-CA60-4DC8-945F-59EF9C1B8332</title>
    <g id="Movil" stroke="none" stroke-width="1" fill="none" fill-rule="evenodd">
        <g id="Inicio-App" transform="translate(-26.000000, -72.000000)" fill="#000000">
            <g id="_Icons-/-Menu" transform="translate(21.000000, 65.000000)">
                <path d="M6.33561644,7 L21.6643836,7 C22.4020242,7 23,7.59797585 23,8.33561644 C23,9.07325703 22.4020242,9.67123288 21.6643836,9.67123288 L6.33561644,9.67123288 C5.59797585,9.67123288 5,9.07325703 5,8.33561644 C5,7.59797585 5.59797585,7 6.33561644,7 Z M6.33561644,13.1643836 L21.6643836,13.1643836 C22.4020242,13.1643836 23,13.7623594 23,14.5 C23,15.2376406 22.4020242,15.8356164 21.6643836,15.8356164 L6.33561644,15.8356164 C5.59797585,15.8356164 5,15.2376406 5,14.5 C5,13.7623594 5.59797585,13.1643836 6.33561644,13.1643836 Z M6.33561644,19.3287671 L13.6643836,19.3287671 C14.4020242,19.3287671 15,19.926743 15,20.6643836 C15,21.4020242 14.4020242,22 13.6643836,22 L6.33561644,22 C5.59797585,22 5,21.4020242 5,20.6643836 C5,19.926743 5.59797585,19.3287671 6.33561644,19.3287671 Z" id="Filters"></path>
            </g>
        </g>
    </g>
</svg>