<?xml version="1.0" encoding="UTF-8"?>
<svg width="24px" height="24px" viewBox="0 0 24 24" version="1.1" xmlns="http://www.w3.org/2000/svg" xmlns:xlink="http://www.w3.org/1999/xlink">
    <title>DAD72EB0-C9FF-4B46-B8E8-36C8D58C13C7</title>
    <g id="Movil" stroke="none" stroke-width="1" fill="none" fill-rule="evenodd" fill-opacity="0.920000017">
        <g id="Setup-Perfil" transform="translate(-221.000000, -208.000000)" fill="#FFFFFF">
            <g id="camera" transform="translate(213.000000, 200.000000)">
                <g id="_Icons-/-FontIcons-/-Camera" transform="translate(8.164179, 8.104478)">
                    <path d="M13.6447197,3.75760572 C13.8293567,3.75760572 14.0069122,3.82866061 14.1405744,3.95603884 L14.1405744,3.95603884 L15.8718516,5.60592175 L17.5501814,5.60651519 C19.0847361,5.67405717 20.3109398,6.90734464 20.3701661,8.46973072 L20.3701661,8.46973072 L20.3689016,16.4424181 C20.2793315,17.9504287 18.992756,19.1054479 17.5185768,19.0333021 L17.5185768,19.0333021 L5.18507776,19.0324616 C3.67678543,19.1054715 2.39047225,17.9514309 2.29873756,16.4010343 L2.29873756,16.4010343 L2.29926261,8.44226296 C2.35796394,6.90734464 3.58416762,5.67405717 5.15032685,5.60582001 L5.15032685,5.60582001 L6.76635533,5.60582001 L8.4975257,3.95603884 C8.63118792,3.82866061 8.80874347,3.75760572 8.99338042,3.75760572 L8.99338042,3.75760572 Z M13.3570875,5.19510572 L9.28101266,5.19510572 L7.55075853,6.84401372 C7.4860744,6.90589169 7.40985259,6.95580777 7.32564561,6.99020945 L7.32564561,6.99020945 C7.23176511,7.02707482 7.14205399,7.04352357 7.05244823,7.04331944 L7.05244823,7.04331944 L5.18193136,7.04262482 C4.39479405,7.07726993 3.76582289,7.70987466 3.73623756,8.46973072 L3.73623756,8.46973072 L3.7349472,16.3579851 C3.77822895,17.0793199 4.39378884,17.6315813 5.15032685,17.5958021 L5.15032685,17.5958021 L17.5533019,17.5966415 C18.2753818,17.6315682 18.8910672,17.0788385 18.9326661,16.3998021 L18.9326661,16.3998021 L18.9331912,8.49719848 C18.9030808,7.70987466 18.2741096,7.07726993 17.5185768,7.04332001 L17.5185768,7.04332001 L15.5841126,7.04332001 C15.3994756,7.04332001 15.2219201,6.97226512 15.0882578,6.84488689 L15.0882578,6.84488689 L13.3570875,5.19510572 Z M11.3344518,8.35596286 C13.2625174,8.35596286 14.8255233,9.91896878 14.8255233,11.8470343 C14.8255233,13.7750998 13.2625174,15.3381057 11.3344518,15.3381057 C9.40638634,15.3381057 7.84338042,13.7750998 7.84338042,11.8470343 C7.84338042,9.91896878 9.40638634,8.35596286 11.3344518,8.35596286 Z M11.3344518,9.79346286 C10.2002957,9.79346286 9.28088042,10.7128781 9.28088042,11.8470343 C9.28088042,12.9811905 10.2002957,13.9006057 11.3344518,13.9006057 C12.468608,13.9006057 13.3880233,12.9811905 13.3880233,11.8470343 C13.3880233,10.7128781 12.468608,9.79346286 11.3344518,9.79346286 Z" id="Combined-Shape"></path>
                </g>
            </g>
        </g>
    </g>
</svg>